<?xml version="1.0" encoding="UTF-8"?> <!-- Generator: Adobe Illustrator 23.0.0, SVG Export Plug-In . SVG Version: 6.00 Build 0) --> <svg xmlns="http://www.w3.org/2000/svg" xmlns:xlink="http://www.w3.org/1999/xlink" id="レイヤー_1" x="0px" y="0px" viewBox="0 0 257.9 33.3" style="enable-background:new 0 0 257.9 33.3;" xml:space="preserve"> <title>アセット 1</title> <g> <g id="レイヤー_1-2"> <polygon points="2.1,31.3 6.4,31.3 6.4,21.2 24.2,21.1 24.2,17 6.4,17.1 6.4,7.6 24.2,7.5 24.2,3.4 2.1,3.5 "></polygon> <polygon points="63.2,3.5 58.9,3.5 58.9,31.3 81.1,31.3 81.1,27.2 63.2,27.2 "></polygon> <polygon points="184.3,3.5 180,3.5 180,31.3 202.1,31.3 202.1,27.2 184.3,27.2 "></polygon> <polygon points="129.7,8.1 144.2,31.3 149.3,31.3 129.7,0 129.7,0 129.7,0 110.2,31.3 115.2,31.3 "></polygon> <path d="M257.4,3.5H253v15.6l0,0c0,4.3-3.5,7.8-7.8,7.8c-4.3,0-7.8-3.5-7.8-7.8V3.5h-4.3v15.6l0,0v0.1l0,0 c0,6.7,5.5,12.1,12.2,12.1c6.7,0,12.1-5.5,12.1-12.2l0,0L257.4,3.5z"></path> </g> </g> </svg> 